<svg xmlns="http://www.w3.org/2000/svg" width="18" height="18" viewBox="0 0 18 18">
  <path id="coins" d="M0,14.249v1.5C0,16.991,3.023,18,6.75,18s6.75-1.009,6.75-2.25v-1.5c-1.452,1.023-4.106,1.5-6.75,1.5S1.452,15.272,0,14.249ZM11.25,4.5C14.977,4.5,18,3.491,18,2.25S14.977,0,11.25,0,4.5,1.009,4.5,2.25,7.523,4.5,11.25,4.5ZM0,10.561v1.814c0,1.241,3.023,2.25,6.75,2.25s6.75-1.009,6.75-2.25V10.561c-1.452,1.2-4.11,1.814-6.75,1.814S1.452,11.756,0,10.561Zm14.625.387C16.639,10.557,18,9.833,18,9V7.5a8.633,8.633,0,0,1-3.375,1.213ZM6.75,5.625C3.023,5.625,0,6.884,0,8.438S3.023,11.25,6.75,11.25,13.5,9.991,13.5,8.438,10.477,5.625,6.75,5.625ZM14.46,7.6C16.569,7.225,18,6.479,18,5.625v-1.5a11.445,11.445,0,0,1-5.65,1.47A3.937,3.937,0,0,1,14.46,7.6Z" fill="#757575"/>
</svg>
