<svg xmlns="http://www.w3.org/2000/svg" width="18" height="13.351" viewBox="0 0 18 13.351">
  <path id="pan" d="M16.5,2.25H1.5A1.467,1.467,0,0,0,0,3.68v10.49A1.467,1.467,0,0,0,1.5,15.6h15a1.467,1.467,0,0,0,1.5-1.43V3.68A1.467,1.467,0,0,0,16.5,2.25ZM5.5,5.111a1.957,1.957,0,0,1,2,1.907,1.957,1.957,0,0,1-2,1.907,1.957,1.957,0,0,1-2-1.907A1.957,1.957,0,0,1,5.5,5.111ZM9,12.168a.645.645,0,0,1-.7.572H2.7a.645.645,0,0,1-.7-.572V11.6A1.938,1.938,0,0,1,4.1,9.879h.156a3.363,3.363,0,0,0,2.487,0H6.9A1.938,1.938,0,0,1,9,11.6Zm7-1.574a.245.245,0,0,1-.25.238h-4.5a.245.245,0,0,1-.25-.238v-.477a.245.245,0,0,1,.25-.238h4.5a.245.245,0,0,1,.25.238Zm0-1.907a.245.245,0,0,1-.25.238h-4.5A.245.245,0,0,1,11,8.687V8.21a.245.245,0,0,1,.25-.238h4.5A.245.245,0,0,1,16,8.21ZM16,6.78a.245.245,0,0,1-.25.238h-4.5A.245.245,0,0,1,11,6.78V6.3a.245.245,0,0,1,.25-.238h4.5A.245.245,0,0,1,16,6.3Z" transform="translate(0 -2.25)" fill="#757575"/>
</svg>
