<svg xmlns="http://www.w3.org/2000/svg" xmlns:xlink="http://www.w3.org/1999/xlink" width="137" height="120.504" viewBox="0 0 137 120.504">
  <defs>
    <linearGradient id="linear-gradient" x1="0.903" y1="0.638" x2="0.401" y2="0.597" gradientUnits="objectBoundingBox">
      <stop offset="0" stop-color="#293897"/>
      <stop offset="1" stop-color="#4f5cb2"/>
    </linearGradient>
    <linearGradient id="linear-gradient-3" x1="0.59" y1="-0.149" x2="0.293" y2="1.238" gradientUnits="objectBoundingBox">
      <stop offset="0" stop-color="#aac86b"/>
      <stop offset="1" stop-color="#439c51"/>
    </linearGradient>
    <linearGradient id="linear-gradient-4" x1="0.22" y1="0.281" x2="0.5" y2="1" gradientUnits="objectBoundingBox">
      <stop offset="0" stop-color="#fecd6c"/>
      <stop offset="1" stop-color="#ee9e53"/>
    </linearGradient>
    <linearGradient id="linear-gradient-5" x1="0.5" y1="-0.329" x2="0.284" y2="1.31" xlink:href="#linear-gradient-3"/>
    <clipPath id="clip-path">
      <path id="path110" d="M1384.153-1635.635q-.057.478-.1.961a29.285,29.285,0,0,0,.214,6.555c.052.357.108.713.173,1.069a33.065,33.065,0,0,0,1.732,6.146q.209.536.434,1.065a34.344,34.344,0,0,0,3.548,6.35c.232.331.473.657.718.977a31.149,31.149,0,0,0,6.477,6.359q.651.473,1.329.905.778.5,1.587.943a8.7,8.7,0,0,0,2.739,1.148,1.948,1.948,0,0,0,.894-.069,1.591,1.591,0,0,0,.17-.073c1.509-.765,1.248-4.348,1.185-5.8q-.033-.779-.108-1.549c-.058-.622-.137-1.241-.234-1.856a36.84,36.84,0,0,0-1.352-5.593c-.138-.433-.285-.864-.437-1.293-.005-.015-.011-.03-.016-.046a58.712,58.712,0,0,0-2.33-5.542q-.243-.51-.5-1.019c-.559-1.133-1.144-2.251-1.74-3.356q-.319-.591-.641-1.178-.241-.443-.483-.882c-.924-1.687-1.844-3.368-2.7-5.089q-.227-.454-.445-.912-.341-.711-.662-1.432c-.5-1.135-.975-2.285-1.393-3.453q-.191-.529-.365-1.063-.115-.349-.221-.7a40.486,40.486,0,0,1-1.167-3.988.593.593,0,0,0-.126-.264.586.586,0,0,0-.9.011l-.009.01a23.856,23.856,0,0,0-3.339,5.455c-.128.292-.251.586-.367.881A25.329,25.329,0,0,0,1384.153-1635.635Z" transform="translate(-1383.963 1648.515)"/>
    </clipPath>
    <linearGradient id="linear-gradient-7" x1="0.22" y1="0.281" x2="2.94" y2="1.093" gradientUnits="objectBoundingBox">
      <stop offset="0" stop-color="#efe67b"/>
      <stop offset="1" stop-color="#004413"/>
    </linearGradient>
    <clipPath id="clip-path-2">
      <path id="path130" d="M1278.755-1455.534q.1.343.214.682a21.7,21.7,0,0,0,2.053,4.4q.209.342.429.678a24.483,24.483,0,0,0,2.969,3.68q.3.3.6.6a25.454,25.454,0,0,0,4.263,3.291q.383.236.774.457a23.1,23.1,0,0,0,6.26,2.445q.583.132,1.17.229.675.114,1.355.18a6.441,6.441,0,0,0,2.2-.015,1.439,1.439,0,0,0,.589-.307,1.274,1.274,0,0,0,.094-.1c.8-.96-.416-3.324-.879-4.291q-.249-.52-.525-1.023c-.221-.407-.455-.805-.7-1.2a27.288,27.288,0,0,0-2.548-3.415q-.33-.382-.674-.753l-.025-.026a43.185,43.185,0,0,0-3.2-3.1q-.313-.277-.634-.55c-.71-.609-1.434-1.2-2.162-1.779q-.389-.31-.779-.616l-.585-.46c-1.12-.879-2.235-1.757-3.318-2.679q-.286-.243-.568-.492-.439-.385-.867-.783c-.673-.626-1.328-1.273-1.953-1.946q-.285-.3-.558-.617-.179-.2-.354-.411a30.254,30.254,0,0,1-1.956-2.375.416.416,0,0,0-.162-.143.434.434,0,0,0-.611.269l0,.01a17.656,17.656,0,0,0-.686,4.686c0,.235,0,.472.007.706A18.726,18.726,0,0,0,1278.755-1455.534Z" transform="translate(-1277.98 1466.01)"/>
    </clipPath>
    <linearGradient id="linear-gradient-8" x1="0.22" y1="0.281" x2="1.372" y2="1.227" xlink:href="#linear-gradient-7"/>
    <clipPath id="clip-path-3">
      <path id="path150" d="M1180.688-1220.128q.362-.087.729-.162a22.674,22.674,0,0,1,5.054-.436c.279.007.557.018.837.035a25.6,25.6,0,0,1,4.878.768c.287.074.572.152.857.235a26.591,26.591,0,0,1,5.2,2.143q.413.224.816.462a24.125,24.125,0,0,1,5.476,4.392c.281.305.554.618.817.938q.454.552.869,1.132a6.723,6.723,0,0,1,1.133,2,1.5,1.5,0,0,1,.029.693,1.128,1.128,0,0,1-.041.137c-.449,1.229-3.224,1.356-4.342,1.441q-.6.046-1.2.059-.724.018-1.446-.01a28.467,28.467,0,0,1-4.419-.526c-.345-.066-.69-.14-1.032-.218l-.037-.008a45.29,45.29,0,0,1-4.469-1.282q-.414-.139-.828-.287c-.921-.326-1.834-.673-2.737-1.029l-.964-.384-.721-.29c-1.379-.555-2.755-1.108-4.155-1.607q-.369-.132-.741-.258-.577-.2-1.161-.377c-.917-.283-1.844-.539-2.779-.753q-.424-.1-.849-.183-.278-.055-.557-.106a31.389,31.389,0,0,0-3.17-.532.445.445,0,0,1-.214-.072.453.453,0,0,1-.074-.694l.007-.007a18.438,18.438,0,0,1,3.883-3.064c.213-.125.427-.246.643-.362A19.575,19.575,0,0,1,1180.688-1220.128Z" transform="translate(-1171.32 1220.732)"/>
    </clipPath>
    <linearGradient id="linear-gradient-9" x1="0.22" y1="0.281" x2="0.893" y2="1" xlink:href="#linear-gradient-7"/>
    <clipPath id="clip-path-4">
      <path id="path178" d="M1332.286-1167.81c-2.022,0-4.1-.01-6.218-.01-1.858,0-3.684.007-5.467.007-11.346,0-21-.273-26.577-4.3a12.281,12.281,0,0,1-1.39-1.164,11.465,11.465,0,0,1-2.76-4.279,15.838,15.838,0,0,1-.892-4.085q-.092-.99-.093-2.078c0-.62.022-1.257.067-1.906a35.076,35.076,0,0,1,.5-3.917c.231-1.26.53-2.553.893-3.865.349-1.259.757-2.535,1.222-3.82.1-.268.2-.539.3-.809l4.925-.365a2.874,2.874,0,0,0,1.9-.917l1.632-1.769-.85,7.756,2.543-.088,5.463,25.109h1.7l-.514-23.52h.715a68.7,68.7,0,0,0,1.4-7.2,40.87,40.87,0,0,0-.757-8.158,3.193,3.193,0,0,0-2.284-2.55,9.7,9.7,0,0,0-2.537-.322c-.235,0-.448.008-.627.021-.158.011-.339.015-.534.015-.137,0-.28,0-.428,0s-.3,0-.454,0a7.87,7.87,0,0,0-1.393.095,2.824,2.824,0,0,0-2.079,1.668l-2.918,6.836-3.945,1.029c.087-.2.174-.4.262-.6q.833-1.881,1.813-3.743c6.625-12.575,18.085-23.887,31.161-23.887,12.8.086,24.058,10.964,30.739,23.2q1.012,1.852,1.88,3.735c.581,1.259,1.113,2.523,1.59,3.781.488,1.284.92,2.564,1.293,3.827q.583,1.972.97,3.877a36.588,36.588,0,0,1,.585,3.935q.119,1.319.12,2.561,0,.747-.043,1.447a17.206,17.206,0,0,1-.721,4.114,11.774,11.774,0,0,1-2.384,4.313,11.99,11.99,0,0,1-2.33,2.033,22.039,22.039,0,0,1-8.638,3.079,103.086,103.086,0,0,1-16.516.919h-.327" transform="translate(-1288.889 1228.632)" fill="url(#linear-gradient)"/>
    </clipPath>
    <clipPath id="clip-path-5">
      <path id="path198" d="M1544.849-1556.659c0-8.155,8.155-7.74,18.106-7.74s18.1-.414,18.1,7.74-8.154,21.462-18.1,21.462S1544.849-1548.506,1544.849-1556.659Z" transform="translate(-1544.849 1564.403)" fill="url(#linear-gradient)"/>
    </clipPath>
    <clipPath id="clip-path-6">
      <path id="path218" d="M1606.317-1245.854a2.477,2.477,0,0,1-2.488,2.488h-26.812a2.478,2.478,0,0,1-2.488-2.488v-.691a2.477,2.477,0,0,1,2.488-2.488h26.95a2.477,2.477,0,0,1,2.488,2.488v.691Z" transform="translate(-1574.529 1249.033)" fill="#febb5e"/>
    </clipPath>
    <clipPath id="clip-path-7">
      <path id="path274" d="M1937.416-534.983h-43.994v-10.856h43.994Z" transform="translate(-1893.422 545.839)" fill="url(#linear-gradient-3)"/>
    </clipPath>
    <clipPath id="clip-path-8">
      <path id="path304" d="M2084.465-534.983h-10.856v-10.856h10.856Z" transform="translate(-2073.608 545.839)" fill="url(#linear-gradient-4)"/>
    </clipPath>
    <clipPath id="clip-path-9">
      <path id="path326" d="M1850.963-680.983h-43.994v-10.855h43.994Z" transform="translate(-1806.969 691.838)" fill="url(#linear-gradient-5)"/>
    </clipPath>
    <clipPath id="clip-path-10">
      <path id="path356" d="M1998.024-680.983h-10.855v-10.855h10.855Z" transform="translate(-1987.169 691.838)" fill="url(#linear-gradient-4)"/>
    </clipPath>
    <linearGradient id="linear-gradient-16" x1="0.867" y1="0" x2="0.17" y2="1" xlink:href="#linear-gradient-3"/>
    <clipPath id="clip-path-11">
      <path id="path430" d="M1484.13-1006.12l.034-2.3,2.182-1.35v3.948Z" transform="translate(-1484.13 1009.768)"/>
    </clipPath>
    <linearGradient id="linear-gradient-18" x1="-49.915" y1="19.06" x2="-49.91" y2="19.06" gradientUnits="objectBoundingBox">
      <stop offset="0" stop-color="#ffecdc"/>
      <stop offset="0.107" stop-color="#ffecdc"/>
      <stop offset="1" stop-color="#d39364"/>
    </linearGradient>
    <clipPath id="clip-path-12">
      <path id="path448" d="M1465.685-1053.34s-.248,1.865-1.74,1.865-2.237.124-2.237-1.367-.372-2.984.622-3.481,3.48-.622,3.356,1.492c0,0,.622-.5.622.248S1466.307-1053.091,1465.685-1053.34Z" transform="translate(-1461.639 1056.629)"/>
    </clipPath>
    <linearGradient id="linear-gradient-19" x1="-23.33" y1="15.27" x2="-23.328" y2="15.27" xlink:href="#linear-gradient-18"/>
    <clipPath id="clip-path-13">
      <path id="path466" d="M1450.011-1083.146s3.854-2.859,1.244-4.848-3.357.373-5.719-1.243c0,0-2.239,1.865.621,3.108,0,0,3.543-.435,3.294,1.554a1.045,1.045,0,0,1,.995-.373C1451.069-1084.824,1450.2-1083.581,1450.011-1083.146Z" transform="translate(-1444.703 1089.237)"/>
    </clipPath>
    <linearGradient id="linear-gradient-20" x1="-14.432" y1="13.324" x2="-14.431" y2="13.324" gradientUnits="objectBoundingBox">
      <stop offset="0" stop-color="gray"/>
      <stop offset="0.893" stop-color="#3c3c35"/>
      <stop offset="1" stop-color="#3c3c35"/>
    </linearGradient>
    <clipPath id="clip-path-14">
      <path id="path484" d="M1433.023-732.221h1.5l3.6-16.513-2.753-8.757-1.7.1Z" transform="translate(-1433.023 757.491)"/>
    </clipPath>
    <linearGradient id="linear-gradient-21" x1="-20.918" y1="2.234" x2="-20.916" y2="2.234" gradientUnits="objectBoundingBox">
      <stop offset="0" stop-color="#fff"/>
      <stop offset="0.003" stop-color="#fff"/>
      <stop offset="0.191" stop-color="#fff"/>
      <stop offset="1" stop-color="#d2d2ff"/>
    </linearGradient>
    <clipPath id="clip-path-15">
      <path id="path504" d="M1396.841-419.106l.291.933a.519.519,0,0,1-.495.674h-4.315s-.1-.8.9-1a10.366,10.366,0,0,0,1.908-.6Z" transform="translate(-1392.319 419.106)"/>
    </clipPath>
    <linearGradient id="linear-gradient-22" x1="-21.452" y1="19.439" x2="-21.449" y2="19.439" xlink:href="#linear-gradient-20"/>
    <clipPath id="clip-path-16">
      <path id="path522" d="M1505.627-419.106l.292.933a.519.519,0,0,1-.5.674h-4.315s-.1-.8.9-1a10.38,10.38,0,0,0,1.907-.6Z" transform="translate(-1501.106 419.106)"/>
    </clipPath>
    <linearGradient id="linear-gradient-23" x1="-23.123" y1="19.439" x2="-23.121" y2="19.439" xlink:href="#linear-gradient-20"/>
    <clipPath id="clip-path-17">
      <path id="path540" d="M1472.307-733.172h-1.7l-5.463-25.109,5.266-.184,0,.072h.784l-.283,1.7h.886l.515,23.519" transform="translate(-1465.143 758.465)"/>
    </clipPath>
    <linearGradient id="linear-gradient-24" x1="-15.239" y1="2.234" x2="-15.237" y2="2.234" xlink:href="#linear-gradient-21"/>
    <linearGradient id="linear-gradient-25" x1="0.5" y1="0.799" x2="0.914" y2="0.201" gradientUnits="objectBoundingBox">
      <stop offset="0" stop-color="#127fde"/>
      <stop offset="1" stop-color="#54bbec"/>
    </linearGradient>
    <clipPath id="clip-path-18">
      <path id="path578" d="M1247.734-844.661a4.832,4.832,0,0,1-2.11.487c-.9-.1-2.4-.9-2.2-1.4s2,.1,2.1-.3-.7-.3-.7-.6.7-.2,1.1,0a10.157,10.157,0,0,0,1.8.4Z" transform="translate(-1243.404 846.666)"/>
    </clipPath>
    <linearGradient id="linear-gradient-26" x1="-21.398" y1="25.204" x2="-21.396" y2="25.204" xlink:href="#linear-gradient-18"/>
    <clipPath id="clip-path-19">
      <path id="path596" d="M1538.763-734.665a8.6,8.6,0,0,0-.3,1.3c0,.3.1.6.3.3s.1.7,0,1.2.8.8,1.5,0,0-2.8,0-2.8Z" transform="translate(-1538.463 734.665)"/>
    </clipPath>
    <linearGradient id="linear-gradient-27" x1="-54.265" y1="16.603" x2="-54.26" y2="16.603" xlink:href="#linear-gradient-18"/>
    <clipPath id="clip-path-20">
      <path id="path614" d="M1431.13-908.328l.792-4.965v4l-.792.961" transform="translate(-1431.13 913.293)"/>
    </clipPath>
    <linearGradient id="linear-gradient-28" x1="-134.673" y1="13.708" x2="-134.661" y2="13.708" gradientUnits="objectBoundingBox">
      <stop offset="0" stop-color="#70cadd"/>
      <stop offset="0.92" stop-color="#0062c5"/>
      <stop offset="1" stop-color="#0062c5"/>
    </linearGradient>
    <clipPath id="clip-path-21">
      <path id="path632" d="M1536.553-758.738h-.784l0-.073.8-.028-.017.1" transform="translate(-1535.77 758.838)"/>
    </clipPath>
    <linearGradient id="linear-gradient-29" x1="-142.908" y1="563.49" x2="-142.895" y2="563.49" gradientUnits="objectBoundingBox">
      <stop offset="0" stop-color="#e5e5e5"/>
      <stop offset="0.003" stop-color="#e5e5e5"/>
      <stop offset="0.191" stop-color="#e5e5e5"/>
      <stop offset="1" stop-color="#bdbde5"/>
    </linearGradient>
    <linearGradient id="linear-gradient-30" x1="-102.731" y1="6.937" x2="-102.722" y2="6.937" xlink:href="#linear-gradient-28"/>
    <clipPath id="clip-path-22">
      <path id="path670" d="M1068.879-1044.733a2.22,2.22,0,0,0-1.886-1.953c-1.341-.157-2.645.425-2.844,1.412a9.523,9.523,0,0,0,.316,3.053,15.918,15.918,0,0,1-.038,2.447l2.812.526a6.207,6.207,0,0,1,.306-1.921,4.764,4.764,0,0,1,1.139-.7.988.988,0,0,0,.46-.959,7.776,7.776,0,0,0-.06-1.422C1069.038-1044.431,1068.923-1044.573,1068.879-1044.733Z" transform="translate(-1064.095 1046.711)"/>
    </clipPath>
    <linearGradient id="linear-gradient-31" x1="-15.706" y1="10.45" x2="-15.704" y2="10.45" xlink:href="#linear-gradient-18"/>
    <clipPath id="clip-path-23">
      <path id="path688" d="M1034.728-878.749l-.182,3.25a2.151,2.151,0,0,0,.15.918l1.259,3.147.82-.821-.82-3.128.176-3.119Z" transform="translate(-1034.543 878.749)"/>
    </clipPath>
    <linearGradient id="linear-gradient-32" x1="-34.521" y1="8.951" x2="-34.516" y2="8.951" xlink:href="#linear-gradient-18"/>
    <clipPath id="clip-path-24">
      <path id="path706" d="M1051.366-803.7l-3.756-3.018a7.042,7.042,0,0,0-.182,4.351c.344,1.095-.022,1.873.164,2.391.173.485,1.446,7.376,1.376,7.884a35.18,35.18,0,0,0-.823,3.431c-.211,1.641-.074,6.653-.182,8.686h0a9.328,9.328,0,0,1-.26,1.85,3.064,3.064,0,0,0-.446,1.157.708.708,0,0,0,.433.677c.3.145.5-.019.6-.008.625.061.747.532,1.822.683a1.639,1.639,0,0,0,1.119-.312.246.246,0,0,0,.038-.333c-.066-.1-.861-.35-1.223-.568a2.851,2.851,0,0,1-.788-1.007,1.093,1.093,0,0,1-.007-.392h0q.06-.48.135-.995c.043-.257.078-.448.078-.448l-.011,0c.675-4.423,1.988-10.28,2.162-12.293C1051.81-794.209,1051.612-798.3,1051.366-803.7Z" transform="translate(-1047.159 806.718)"/>
    </clipPath>
    <linearGradient id="linear-gradient-33" x1="-17.205" y1="1.932" x2="-17.203" y2="1.932" xlink:href="#linear-gradient-18"/>
    <clipPath id="clip-path-25">
      <path id="path724" d="M1050.553-417.433c.075-.135.09-.338.016-.385a6.331,6.331,0,0,0-.676-.384c-.21-.09-.541-.167-.424-.107s-.091.3-.285.292a5.915,5.915,0,0,1-1.562-.545,1.314,1.314,0,0,1-.828-.875,2.558,2.558,0,0,0-.378.765,1.318,1.318,0,0,0-.068.578,1.341,1.341,0,0,1,.074.548,1.061,1.061,0,0,0,.4.133,1.544,1.544,0,0,0,.427,0l.039-.348a1.593,1.593,0,0,1,.342.026,1.874,1.874,0,0,1,.527.231c.079.089.144.255.247.3a2.135,2.135,0,0,0,.885.2C1050.01-416.983,1050.425-417.2,1050.553-417.433Z" transform="translate(-1046.334 419.439)"/>
    </clipPath>
    <linearGradient id="linear-gradient-34" x1="-18.204" y1="12.846" x2="-18.202" y2="12.846" xlink:href="#linear-gradient-20"/>
    <clipPath id="clip-path-26">
      <path id="path742" d="M1064.824-784.109c-.08-.086-.934-.217-1.336-.38a2.309,2.309,0,0,1-.942-.879,9.593,9.593,0,0,1-.076-1.78c.047-3.185.557-10.971.624-12.836.115-3.24-.339-6.579-1.638-11.766l-4.676-3.514a8.252,8.252,0,0,0-.817,4.735c.266,1.337,1.38,1.532,1.573,2.051s3.085,8.888,3.085,8.888a15.813,15.813,0,0,0-.54,3.811c-.01,1.7.812,6.812.975,8.761a6.419,6.419,0,0,1-.014,1.585c-.134.358-.481.78-.459,1.229a.69.69,0,0,0,.534.605c.33.1.511-.093.624-.1.654-.034.84.415,1.969.4a1.789,1.789,0,0,0,1.116-.478A.238.238,0,0,0,1064.824-784.109Z" transform="translate(-1055.864 815.265)"/>
    </clipPath>
    <linearGradient id="linear-gradient-35" x1="-8.712" y1="1.9" x2="-8.711" y2="1.9" xlink:href="#linear-gradient-18"/>
    <clipPath id="clip-path-27">
      <path id="path760" d="M1122.01-409.508c.06-.145.05-.349-.032-.384a6.607,6.607,0,0,0-.747-.28c-.228-.058-.58-.083-.451-.042s-.056.31-.257.332a6.257,6.257,0,0,1-1.683-.306,1.072,1.072,0,0,1-.852-.744,2.708,2.708,0,0,0-.408.816,1.274,1.274,0,0,0,0,.584,1.273,1.273,0,0,1,.146.533,1.13,1.13,0,0,0,.43.072,1.7,1.7,0,0,0,.441-.068l0-.351a1.7,1.7,0,0,1,.356-.026,1.17,1.17,0,0,1,.577.2c.1.071.2.192.312.219a2.356,2.356,0,0,0,.917.06C1121.506-408.98,1121.907-409.259,1122.01-409.508Z" transform="translate(-1117.545 410.932)"/>
    </clipPath>
    <linearGradient id="linear-gradient-36" x1="-18.49" y1="14.894" x2="-18.488" y2="14.894" xlink:href="#linear-gradient-20"/>
    <clipPath id="clip-path-28">
      <path id="path778" d="M1110.352-913.307a1.3,1.3,0,0,1-1.259-.058c.035-.1.124-.047.3-.151.19-.115.242-.276.207-.361-.026-.065-.272.038-.334.043l-.708.066a1.138,1.138,0,0,0-.658.241,1.219,1.219,0,0,0-.117.11c-1.506.045-5.105-1.629-5.715-1.688-.4-.039-4.216-4.259-4.216-4.259l-1.242,2.741a45.55,45.55,0,0,0,4.149,3.45c1.411.857,6.366,1.046,6.809,1.062a1.524,1.524,0,0,0,1.242.346c.645-.131,1.619.169,2.135-1.207C1111-913.13,1110.672-913.457,1110.352-913.307Z" transform="translate(-1096.607 919.365)"/>
    </clipPath>
    <linearGradient id="linear-gradient-37" x1="-5.697" y1="8.993" x2="-5.696" y2="8.993" xlink:href="#linear-gradient-18"/>
    <clipPath id="clip-path-29">
      <path id="path796" d="M1035.121-927.156a22.228,22.228,0,0,0-.982,3.573l1.791.282v-2.536" transform="translate(-1034.139 927.156)"/>
    </clipPath>
    <linearGradient id="linear-gradient-38" x1="-43.027" y1="17.921" x2="-43.022" y2="17.921" xlink:href="#linear-gradient-21"/>
    <linearGradient id="linear-gradient-39" x1="-9.414" y1="4.755" x2="-9.413" y2="4.755" gradientUnits="objectBoundingBox">
      <stop offset="0" stop-color="#c662c2"/>
      <stop offset="0.003" stop-color="#c662c2"/>
      <stop offset="0.191" stop-color="#c662c2"/>
      <stop offset="1" stop-color="#17236d"/>
    </linearGradient>
    <linearGradient id="linear-gradient-40" x1="0.5" x2="0.5" y2="0.744" gradientUnits="objectBoundingBox">
      <stop offset="0" stop-color="#6d4196"/>
      <stop offset="1" stop-color="#a756b3"/>
    </linearGradient>
    <clipPath id="clip-path-30">
      <path id="path836" d="M1051.322-946.767a19.22,19.22,0,0,0,1.845-2.38,9.189,9.189,0,0,1-1.162-2.415,3.251,3.251,0,0,0-.935-1.4,4.191,4.191,0,0,0-1.373-1.548c-.113-.019-.762-.01-1.527.007a3.062,3.062,0,0,0-2.981,3.264,21.713,21.713,0,0,0,.337,2.492,26.546,26.546,0,0,1,.17,4.213c-.019.448-.228.576-.228.8,0,.329.553.511,1.09.4.572-.112,2.6.043,3.885-.19a1.887,1.887,0,0,0,.939-.363.392.392,0,0,0,.135-.267,5.187,5.187,0,0,0-.085-.683C1051.374-945.555,1051.326-946.221,1051.322-946.767Z" transform="translate(-1045.183 954.525)"/>
    </clipPath>
    <linearGradient id="linear-gradient-41" x1="-9.755" y1="6.337" x2="-9.754" y2="6.337" xlink:href="#linear-gradient-21"/>
    <clipPath id="clip-path-31">
      <path id="path856" d="M1002.878-1054.508c.484-.19.419-1.458-.183-1.838a3.569,3.569,0,0,0-5.208,3.389,7.348,7.348,0,0,1-3.983,6.095c-.686.423-.31.659.974,1.152.912.35.761.976,1.255,1.194a1.7,1.7,0,0,0,1.7-.206c.792-.423.747.409,1.265.557,1.054.3,1.371-.845,1.19-1.542s-.969-6.13.542-6.954c.687-.375,1.029.562,1.029.562S1001.912-1054.128,1002.878-1054.508Z" transform="translate(-993.167 1056.726)"/>
    </clipPath>
    <linearGradient id="linear-gradient-42" x1="-7.376" y1="6.244" x2="-7.375" y2="6.244" xlink:href="#linear-gradient-20"/>
    <clipPath id="clip-path-32">
      <path id="path874" d="M951.337-1274.257a3.686,3.686,0,0,1-3.686,3.686,3.686,3.686,0,0,1-3.686-3.686,3.686,3.686,0,0,1,3.686-3.686A3.686,3.686,0,0,1,951.337-1274.257Z" transform="translate(-943.966 1277.942)"/>
    </clipPath>
    <linearGradient id="linear-gradient-43" x1="-9.542" y1="12.918" x2="-9.541" y2="12.918" gradientUnits="objectBoundingBox">
      <stop offset="0" stop-color="#f5ef68"/>
      <stop offset="0.019" stop-color="#f5ef68"/>
      <stop offset="1" stop-color="#f8c154"/>
    </linearGradient>
    <clipPath id="clip-path-33">
      <path id="path892" d="M958.389-1266.589a3.068,3.068,0,0,1-3.068,3.068,3.068,3.068,0,0,1-3.068-3.068,3.068,3.068,0,0,1,3.068-3.068A3.068,3.068,0,0,1,958.389-1266.589Z" transform="translate(-952.252 1269.657)"/>
    </clipPath>
    <linearGradient id="linear-gradient-44" x1="-11.563" y1="15.416" x2="-11.561" y2="15.416" gradientUnits="objectBoundingBox">
      <stop offset="0" stop-color="#ffc05b"/>
      <stop offset="0.394" stop-color="#ffe999"/>
      <stop offset="1" stop-color="#ffe999"/>
    </linearGradient>
    <clipPath id="clip-path-34">
      <path id="path926" d="M1063.871-1955.745a2.851,2.851,0,0,1-2.851,2.85,2.851,2.851,0,0,1-2.851-2.85,2.85,2.85,0,0,1,2.851-2.85A2.85,2.85,0,0,1,1063.871-1955.745Z" transform="translate(-1058.169 1958.595)"/>
    </clipPath>
    <linearGradient id="linear-gradient-45" x1="-13.83" y1="25.6" x2="-13.828" y2="25.6" xlink:href="#linear-gradient-43"/>
    <clipPath id="clip-path-35">
      <path id="path944" d="M1069.325-1949.822a2.373,2.373,0,0,1-2.373,2.372,2.373,2.373,0,0,1-2.373-2.372,2.374,2.374,0,0,1,2.373-2.374A2.374,2.374,0,0,1,1069.325-1949.822Z" transform="translate(-1064.579 1952.195)"/>
    </clipPath>
    <linearGradient id="linear-gradient-46" x1="-16.714" y1="30.65" x2="-16.712" y2="30.65" xlink:href="#linear-gradient-44"/>
    <clipPath id="clip-path-36">
      <path id="path978" d="M2077.323-1246.052a2.85,2.85,0,0,1-2.851,2.85,2.85,2.85,0,0,1-2.85-2.85,2.85,2.85,0,0,1,2.85-2.851A2.85,2.85,0,0,1,2077.323-1246.052Z" transform="translate(-2071.622 1248.902)"/>
    </clipPath>
    <linearGradient id="linear-gradient-47" x1="-27.078" y1="16.323" x2="-27.076" y2="16.323" xlink:href="#linear-gradient-43"/>
    <clipPath id="clip-path-37">
      <path id="path996" d="M2082.769-1240.121a2.374,2.374,0,0,1-2.374,2.373,2.374,2.374,0,0,1-2.374-2.373,2.373,2.373,0,0,1,2.374-2.373A2.373,2.373,0,0,1,2082.769-1240.121Z" transform="translate(-2078.021 1242.494)"/>
    </clipPath>
    <linearGradient id="linear-gradient-48" x1="-32.619" y1="19.507" x2="-32.617" y2="19.507" xlink:href="#linear-gradient-44"/>
    <clipPath id="clip-path-38">
      <path id="path1030" d="M1841.868-1697.946a1.516,1.516,0,0,1-1.516,1.516,1.516,1.516,0,0,1-1.516-1.516,1.516,1.516,0,0,1,1.516-1.516A1.516,1.516,0,0,1,1841.868-1697.946Z" transform="translate(-1838.835 1699.462)"/>
    </clipPath>
    <linearGradient id="linear-gradient-49" x1="-45.188" y1="41.763" x2="-45.185" y2="41.763" xlink:href="#linear-gradient-43"/>
    <clipPath id="clip-path-39">
      <path id="path1048" d="M1844.773-1694.787a1.261,1.261,0,0,1-1.262,1.262,1.262,1.262,0,0,1-1.262-1.262,1.262,1.262,0,0,1,1.262-1.262A1.262,1.262,0,0,1,1844.773-1694.787Z" transform="translate(-1842.249 1696.049)"/>
    </clipPath>
    <linearGradient id="linear-gradient-50" x1="-54.397" y1="50.08" x2="-54.393" y2="50.08" xlink:href="#linear-gradient-44"/>
    <clipPath id="clip-path-40">
      <path id="path1082" d="M1255.186-944.718a1.516,1.516,0,0,1-1.516,1.516,1.516,1.516,0,0,1-1.516-1.516,1.516,1.516,0,0,1,1.516-1.516A1.516,1.516,0,0,1,1255.186-944.718Z" transform="translate(-1252.154 946.234)"/>
    </clipPath>
    <linearGradient id="linear-gradient-51" x1="-30.774" y1="23.254" x2="-30.77" y2="23.254" xlink:href="#linear-gradient-43"/>
    <clipPath id="clip-path-41">
      <path id="path1100" d="M1258.086-941.562a1.262,1.262,0,0,1-1.262,1.262,1.262,1.262,0,0,1-1.262-1.262,1.262,1.262,0,0,1,1.262-1.262A1.262,1.262,0,0,1,1258.086-941.562Z" transform="translate(-1255.562 942.824)"/>
    </clipPath>
    <linearGradient id="linear-gradient-52" x1="-37.067" y1="27.834" x2="-37.063" y2="27.834" xlink:href="#linear-gradient-44"/>
    <clipPath id="clip-path-42">
      <path id="path1134" d="M1114.192-1485.04a1.516,1.516,0,0,1-1.516,1.516,1.516,1.516,0,0,1-1.516-1.516,1.517,1.517,0,0,1,1.516-1.516A1.517,1.517,0,0,1,1114.192-1485.04Z" transform="translate(-1111.16 1486.556)"/>
    </clipPath>
    <linearGradient id="linear-gradient-53" x1="-27.308" y1="36.531" x2="-27.304" y2="36.531" xlink:href="#linear-gradient-43"/>
    <clipPath id="clip-path-43">
      <path id="path1152" d="M1117.092-1481.881a1.262,1.262,0,0,1-1.262,1.263,1.262,1.262,0,0,1-1.262-1.263,1.262,1.262,0,0,1,1.262-1.262A1.262,1.262,0,0,1,1117.092-1481.881Z" transform="translate(-1114.568 1483.143)"/>
    </clipPath>
    <linearGradient id="linear-gradient-54" x1="-32.904" y1="43.777" x2="-32.9" y2="43.777" xlink:href="#linear-gradient-44"/>
    <clipPath id="clip-path-44">
      <path id="path1186" d="M2380.293-1387.574a1.516,1.516,0,0,1-1.516,1.516,1.516,1.516,0,0,1-1.516-1.516,1.516,1.516,0,0,1,1.516-1.516A1.516,1.516,0,0,1,2380.293-1387.574Z" transform="translate(-2377.261 1389.09)"/>
    </clipPath>
    <linearGradient id="linear-gradient-55" x1="-58.419" y1="34.136" x2="-58.416" y2="34.136" xlink:href="#linear-gradient-43"/>
    <clipPath id="clip-path-45">
      <path id="path1204" d="M2383.2-1384.415a1.261,1.261,0,0,1-1.262,1.262,1.261,1.261,0,0,1-1.262-1.262,1.262,1.262,0,0,1,1.262-1.262A1.262,1.262,0,0,1,2383.2-1384.415Z" transform="translate(-2380.674 1385.677)"/>
    </clipPath>
    <linearGradient id="linear-gradient-56" x1="-70.296" y1="40.916" x2="-70.292" y2="40.916" xlink:href="#linear-gradient-44"/>
    <clipPath id="clip-path-46">
      <path id="path1238" d="M2524.132-1065.839a1.516,1.516,0,0,1-1.516,1.516,1.516,1.516,0,0,1-1.515-1.516,1.516,1.516,0,0,1,1.515-1.516A1.516,1.516,0,0,1,2524.132-1065.839Z" transform="translate(-2521.101 1067.355)"/>
    </clipPath>
    <linearGradient id="linear-gradient-57" x1="-61.974" y1="26.232" x2="-61.971" y2="26.232" xlink:href="#linear-gradient-43"/>
    <clipPath id="clip-path-47">
      <path id="path1256" d="M2527.025-1062.685a1.262,1.262,0,0,1-1.263,1.262,1.262,1.262,0,0,1-1.262-1.262,1.262,1.262,0,0,1,1.262-1.262A1.262,1.262,0,0,1,2527.025-1062.685Z" transform="translate(-2524.501 1063.947)"/>
    </clipPath>
    <linearGradient id="linear-gradient-58" x1="-74.513" y1="31.41" x2="-74.509" y2="31.41" xlink:href="#linear-gradient-44"/>
    <clipPath id="clip-path-48">
      <path id="path1290" d="M2171.173-965.535a1.516,1.516,0,0,1-1.515,1.516,1.516,1.516,0,0,1-1.516-1.516,1.516,1.516,0,0,1,1.516-1.516A1.516,1.516,0,0,1,2171.173-965.535Z" transform="translate(-2168.141 967.051)"/>
    </clipPath>
    <linearGradient id="linear-gradient-59" x1="-53.298" y1="23.766" x2="-53.294" y2="23.766" xlink:href="#linear-gradient-43"/>
    <clipPath id="clip-path-49">
      <path id="path1308" d="M2174.066-962.38a1.262,1.262,0,0,1-1.262,1.262,1.262,1.262,0,0,1-1.263-1.262,1.262,1.262,0,0,1,1.263-1.262A1.262,1.262,0,0,1,2174.066-962.38Z" transform="translate(-2171.542 963.642)"/>
    </clipPath>
    <linearGradient id="linear-gradient-60" x1="-64.095" y1="28.45" x2="-64.091" y2="28.45" xlink:href="#linear-gradient-44"/>
    <clipPath id="clip-path-50">
      <path id="path1342" d="M1396.176-1831.373a1.516,1.516,0,0,1-1.516,1.516,1.516,1.516,0,0,1-1.516-1.516,1.516,1.516,0,0,1,1.516-1.516A1.517,1.517,0,0,1,1396.176-1831.373Z" transform="translate(-1393.143 1832.889)"/>
    </clipPath>
    <linearGradient id="linear-gradient-61" x1="-34.235" y1="45.042" x2="-34.232" y2="45.042" xlink:href="#linear-gradient-43"/>
    <clipPath id="clip-path-51">
      <path id="path1360" d="M1399.08-1828.214a1.262,1.262,0,0,1-1.262,1.263,1.263,1.263,0,0,1-1.262-1.263,1.262,1.262,0,0,1,1.262-1.262A1.262,1.262,0,0,1,1399.08-1828.214Z" transform="translate(-1396.557 1829.476)"/>
    </clipPath>
    <linearGradient id="linear-gradient-62" x1="-41.237" y1="53.999" x2="-41.233" y2="53.999" xlink:href="#linear-gradient-44"/>
    <clipPath id="clip-path-52">
      <path id="path1394" d="M2099.254-1951.546a1.516,1.516,0,0,1-1.516,1.516,1.516,1.516,0,0,1-1.516-1.516,1.516,1.516,0,0,1,1.516-1.516A1.516,1.516,0,0,1,2099.254-1951.546Z" transform="translate(-2096.222 1953.062)"/>
    </clipPath>
    <linearGradient id="linear-gradient-63" x1="-51.513" y1="47.995" x2="-51.51" y2="47.995" xlink:href="#linear-gradient-43"/>
    <clipPath id="clip-path-53">
      <path id="path1412" d="M2102.158-1948.387a1.262,1.262,0,0,1-1.262,1.262,1.261,1.261,0,0,1-1.262-1.262,1.262,1.262,0,0,1,1.262-1.262A1.262,1.262,0,0,1,2102.158-1948.387Z" transform="translate(-2099.635 1949.649)"/>
    </clipPath>
    <linearGradient id="linear-gradient-64" x1="-61.997" y1="57.569" x2="-61.993" y2="57.569" xlink:href="#linear-gradient-44"/>
    <clipPath id="clip-path-54">
      <path id="path1446" d="M2244.885-1716.163a3.686,3.686,0,0,1-3.686,3.686,3.686,3.686,0,0,1-3.685-3.686,3.686,3.686,0,0,1,3.685-3.686A3.686,3.686,0,0,1,2244.885-1716.163Z" transform="translate(-2237.514 1719.849)"/>
    </clipPath>
    <linearGradient id="linear-gradient-65" x1="-22.619" y1="17.384" x2="-22.618" y2="17.384" xlink:href="#linear-gradient-43"/>
    <clipPath id="clip-path-55">
      <path id="path1464" d="M2251.931-1708.488a3.068,3.068,0,0,1-3.069,3.068,3.068,3.068,0,0,1-3.068-3.068,3.068,3.068,0,0,1,3.068-3.068A3.068,3.068,0,0,1,2251.931-1708.488Z" transform="translate(-2245.794 1711.556)"/>
    </clipPath>
    <linearGradient id="linear-gradient-66" x1="-27.268" y1="20.785" x2="-27.266" y2="20.785" xlink:href="#linear-gradient-44"/>
  </defs>
  <g id="g12" transform="translate(-814.033 1958.595)">
    <g id="g106" transform="translate(856.5 -1935.49)">
      <g id="g108" transform="translate(0)" clip-path="url(#clip-path)">
        <path id="path122" d="M1384.153-1635.635q-.057.478-.1.961a29.285,29.285,0,0,0,.214,6.555c.052.357.108.713.173,1.069a33.065,33.065,0,0,0,1.732,6.146q.209.536.434,1.065a34.344,34.344,0,0,0,3.548,6.35c.232.331.473.657.718.977a31.149,31.149,0,0,0,6.477,6.359q.651.473,1.329.905.778.5,1.587.943a8.7,8.7,0,0,0,2.739,1.148,1.948,1.948,0,0,0,.894-.069,1.591,1.591,0,0,0,.17-.073c1.509-.765,1.248-4.348,1.185-5.8q-.033-.779-.108-1.549c-.058-.622-.137-1.241-.234-1.856a36.84,36.84,0,0,0-1.352-5.593c-.138-.433-.285-.864-.437-1.293-.005-.015-.011-.03-.016-.046a58.712,58.712,0,0,0-2.33-5.542q-.243-.51-.5-1.019c-.559-1.133-1.144-2.251-1.74-3.356q-.319-.591-.641-1.178-.241-.443-.483-.882c-.924-1.687-1.844-3.368-2.7-5.089q-.227-.454-.445-.912-.341-.711-.662-1.432c-.5-1.135-.975-2.285-1.393-3.453q-.191-.529-.365-1.063-.115-.349-.221-.7a40.486,40.486,0,0,1-1.167-3.988.593.593,0,0,0-.126-.264.586.586,0,0,0-.9.011l-.009.01a23.856,23.856,0,0,0-3.339,5.455c-.128.292-.251.586-.367.881a25.329,25.329,0,0,0-1.573,6.316" transform="translate(-1383.963 1648.515)" fill="url(#linear-gradient-7)"/>
      </g>
    </g>
    <path id="path124" d="M1391.117-1632.371l-5.8-3.264q-.057.478-.1.961l6.21,3.5a51.554,51.554,0,0,0,2.37,6.593q-.5-.177-1.005-.361-1.07-.393-2.13-.821-2.661-1.073-5.231-2.353c.052.357.108.713.173,1.069q.612.3,1.23.586,2.249,1.048,4.564,1.94,1.139.44,2.291.841a4.912,4.912,0,0,0,.6.2c.828,1.808,1.741,3.576,2.713,5.3l.081.141q-4.9-1.342-9.75-2.864.209.536.434,1.065,4.945,1.539,9.947,2.889c.959,1.628,1.967,3.233,2.9,4.879q-4.621-.876-9.3-1.418.349.5.718.977,4.587.561,9.129,1.444a32.094,32.094,0,0,1,1.56,3.307c.207.52.4,1.045.574,1.574-.339.026-.684.02-1.021.029q-1.884.049-3.765,0,.651.473,1.329.905,1.574.01,3.146-.049c.2-.008.4-.015.583-.04.221.72.417,1.448.6,2.181a1.948,1.948,0,0,0,.894-.069q-.307-1.274-.693-2.527a1.275,1.275,0,0,0,.153-.261c.337-.76.6-1.559.9-2.334s.59-1.53.884-2.3c-.058-.622-.137-1.241-.234-1.856q-.672,1.745-1.345,3.49-.389,1-.775,2.007c-.246-.7-.517-1.385-.816-2.064-.342-.775-.717-1.532-1.113-2.278q1.349-3.374,2.7-6.748c-.138-.433-.285-.864-.437-1.293q-1.4,3.515-2.81,7.031c-.937-1.674-1.959-3.3-2.938-4.954q1.626-3.865,3.4-7.664-.243-.51-.5-1.019-1.808,3.83-3.463,7.73-.3-.515-.584-1.034c-.811-1.475-1.577-2.977-2.28-4.507a2.455,2.455,0,0,0,.161-.275,74.175,74.175,0,0,1,3.785-6.448l-.483-.882q-.911,1.362-1.758,2.765-1.137,1.884-2.156,3.836c-.691-1.577-1.312-3.182-1.847-4.819-.175-.534-.341-1.075-.494-1.618q1.737-2.654,3.557-5.253-.227-.455-.445-.912-1.747,2.486-3.422,5.021a39.511,39.511,0,0,1-1.075-6.245.416.416,0,0,0,.13-.122l2.312-3.54q-.191-.529-.365-1.063l-2.173,3.326a31.357,31.357,0,0,1,.658-8.277.586.586,0,0,0-.9.011l-.009.01a32.582,32.582,0,0,0-.647,8.019q-1.381-1.245-2.692-2.563c-.128.292-.251.586-.367.881q1.52,1.51,3.129,2.925a39.073,39.073,0,0,0,1.1,6.655" transform="translate(-528.629 -286.975)" fill="#006837"/>
    <g id="g126" transform="translate(848.603 -1921.891)">
      <g id="g128" transform="translate(0)" clip-path="url(#clip-path-2)">
        <path id="path142" d="M1278.755-1455.534q.1.343.214.682a21.7,21.7,0,0,0,2.053,4.4q.209.342.429.678a24.483,24.483,0,0,0,2.969,3.68q.3.3.6.6a25.454,25.454,0,0,0,4.263,3.291q.383.236.774.457a23.1,23.1,0,0,0,6.26,2.445q.583.132,1.17.229.675.114,1.355.18a6.441,6.441,0,0,0,2.2-.015,1.439,1.439,0,0,0,.589-.307,1.274,1.274,0,0,0,.094-.1c.8-.96-.416-3.324-.879-4.291q-.249-.52-.525-1.023c-.221-.407-.455-.805-.7-1.2a27.288,27.288,0,0,0-2.548-3.415q-.33-.382-.674-.753l-.025-.026a43.185,43.185,0,0,0-3.2-3.1q-.313-.277-.634-.55c-.71-.609-1.434-1.2-2.162-1.779q-.389-.31-.779-.616l-.585-.46c-1.12-.879-2.235-1.757-3.318-2.679q-.286-.243-.568-.492-.439-.385-.867-.783c-.673-.626-1.328-1.273-1.953-1.946q-.285-.3-.558-.617-.179-.2-.354-.411a30.254,30.254,0,0,1-1.956-2.375.416.416,0,0,0-.162-.143.434.434,0,0,0-.611.269l0,.01a17.656,17.656,0,0,0-.686,4.686c0,.235,0,.472.007.706a18.726,18.726,0,0,0,.767,4.758" transform="translate(-1277.98 1466.01)" fill="url(#linear-gradient-8)"/>
      </g>
    </g>
    <path id="path144" d="M1283.653-1455l-4.9-.536q.1.343.214.682l5.247.573a38.177,38.177,0,0,0,3.532,3.8q-.393.026-.79.047-.843.043-1.689.061-2.125.044-4.246-.08.209.342.429.678.5.026,1.008.041,1.836.059,3.673-.007.9-.032,1.8-.094a3.636,3.636,0,0,0,.469-.038c1.09.99,2.227,1.928,3.39,2.818l.1.073q-3.729.513-7.472.888.3.3.605.6,3.815-.391,7.613-.928c1.128.829,2.281,1.629,3.393,2.479q-3.4.749-6.743,1.739.383.236.774.457,3.287-.953,6.637-1.674a23.8,23.8,0,0,1,2.024,1.8c.293.294.574.6.849.9-.223.116-.46.213-.687.317q-1.268.582-2.563,1.1c.388.088.778.165,1.169.229q1.074-.452,2.128-.949a4.311,4.311,0,0,0,.386-.2q.539.639,1.04,1.311a1.442,1.442,0,0,0,.589-.307c-.386-.519-.788-1.027-1.207-1.519a.956.956,0,0,0,.029-.222c.008-.615-.044-1.237-.066-1.851s-.043-1.214-.065-1.821c-.221-.406-.455-.805-.7-1.2q.051,1.383.1,2.768.028.8.057,1.592-.556-.6-1.156-1.168c-.458-.428-.934-.834-1.421-1.227q-.064-2.69-.128-5.38c-.22-.255-.445-.505-.674-.753q.067,2.8.133,5.6c-1.126-.867-2.3-1.679-3.443-2.518q-.018-3.105.085-6.208-.313-.278-.634-.55-.116,3.134-.108,6.271-.352-.264-.7-.534c-.982-.768-1.939-1.568-2.864-2.405a1.811,1.811,0,0,0,.03-.234,55.092,55.092,0,0,1,.7-5.493l-.585-.46q-.224,1.192-.392,2.395-.227,1.614-.352,3.239c-.929-.872-1.82-1.785-2.661-2.743-.274-.313-.544-.633-.807-.958q.411-2.313.893-4.612-.286-.243-.568-.492-.467,2.2-.868,4.415a29.269,29.269,0,0,1-2.55-3.939.307.307,0,0,0,.053-.121q.272-1.541.544-3.084-.285-.3-.558-.617-.256,1.448-.511,2.9a23.255,23.255,0,0,1-1.961-5.827.434.434,0,0,0-.611.269l0,.01a24.109,24.109,0,0,0,1.893,5.648q-1.3-.445-2.58-.962c0,.235,0,.472.007.706q1.474.586,2.982,1.081a28.864,28.864,0,0,0,2.682,4.213" transform="translate(-429.377 -455.881)" fill="#006837"/>
    <g id="g146" transform="translate(840.655 -1903.614)">
      <g id="g148" transform="translate(0 0)" clip-path="url(#clip-path-3)">
        <path id="path162" d="M1180.688-1220.128q.362-.087.729-.162a22.674,22.674,0,0,1,5.054-.436c.279.007.557.018.837.035a25.6,25.6,0,0,1,4.878.768c.287.074.572.152.857.235a26.591,26.591,0,0,1,5.2,2.143q.413.224.816.462a24.125,24.125,0,0,1,5.476,4.392c.281.305.554.618.817.938q.454.552.869,1.132a6.723,6.723,0,0,1,1.133,2,1.5,1.5,0,0,1,.029.693,1.128,1.128,0,0,1-.041.137c-.449,1.229-3.224,1.356-4.342,1.441q-.6.046-1.2.059-.724.018-1.446-.01a28.467,28.467,0,0,1-4.419-.526c-.345-.066-.69-.14-1.032-.218l-.037-.008a45.29,45.29,0,0,1-4.469-1.282q-.414-.139-.828-.287c-.921-.326-1.834-.673-2.737-1.029l-.964-.384-.721-.29c-1.379-.555-2.755-1.108-4.155-1.607q-.369-.132-.741-.258-.577-.2-1.161-.377c-.917-.283-1.844-.539-2.779-.753q-.424-.1-.849-.183-.278-.055-.557-.106a31.389,31.389,0,0,0-3.17-.532.445.445,0,0,1-.214-.072.453.453,0,0,1-.074-.694l.007-.007a18.438,18.438,0,0,1,3.883-3.064c.213-.125.427-.246.643-.362a19.575,19.575,0,0,1,4.706-1.786" transform="translate(-1171.32 1220.732)" fill="url(#linear-gradient-9)"/>
      </g>
    </g>
    <path id="path164" d="M1183.726-1215.89q-1.518-2.077-3.037-4.153.363-.087.729-.162,1.627,2.225,3.254,4.449a39.9,39.9,0,0,1,5.28,1.216c-.121-.247-.244-.493-.369-.739q-.4-.786-.826-1.561-1.067-1.945-2.285-3.8c.279.007.557.018.837.035q.286.443.563.891,1.01,1.631,1.907,3.328.441.834.855,1.682a3.972,3.972,0,0,1,.21.444c1.463.471,2.9,1.01,4.317,1.6l.116.049q-1.478-3.641-3.091-7.225c.287.073.572.152.858.235q1.635,3.657,3.129,7.374c1.338.588,2.664,1.215,4.012,1.778q-1.1-3.468-1.939-7.009.413.223.816.462.851,3.472,1.944,6.879a24.925,24.925,0,0,0,2.683.9c.418.111.839.209,1.261.3-.011-.262-.047-.527-.071-.787q-.134-1.451-.341-2.892.422.458.817.939.151,1.207.25,2.421a4.514,4.514,0,0,1,.023.451c.573.1,1.15.188,1.729.258a1.5,1.5,0,0,1,.029.693c-.671-.079-1.34-.178-2-.3a1,1,0,0,1-.186.142c-.552.328-1.142.605-1.71.906l-1.682.89q-.724.018-1.446-.01l2.556-1.352,1.47-.779c-.557-.125-1.111-.27-1.659-.437-.626-.191-1.242-.411-1.851-.646l-4.936,2.688c-.345-.066-.69-.14-1.032-.218l5.141-2.8c-1.371-.567-2.715-1.2-4.073-1.8q-2.82,1.6-5.574,3.313-.414-.139-.828-.287,2.775-1.74,5.619-3.366-.423-.181-.847-.354c-1.207-.488-2.431-.938-3.67-1.339a1.911,1.911,0,0,1-.2.149,57.631,57.631,0,0,0-4.606,3.5l-.721-.29q.963-.823,1.962-1.6,1.345-1.045,2.749-2.006c-1.274-.386-2.564-.717-3.87-.978-.426-.085-.856-.163-1.287-.231q-1.88,1.578-3.709,3.212-.37-.132-.741-.258,1.748-1.57,3.543-3.087a30.558,30.558,0,0,0-4.9-.254.315.315,0,0,1-.082.111l-2.507,2.1q-.424-.1-.849-.183l2.355-1.973a24.278,24.278,0,0,0-6.3,1.263.453.453,0,0,1-.074-.694l.007-.007a25.182,25.182,0,0,1,6.1-1.231q-1.083-.947-2.215-1.833c.213-.125.427-.246.643-.362q1.3,1.029,2.533,2.135a30.236,30.236,0,0,1,5.21.232" transform="translate(-330.665 -682.966)" fill="#006837"/>
    <g id="Group_40563" data-name="Group 40563" transform="translate(814.033 -1847.679)">
      <path id="path168" d="M883.97-434.33c-19.468,0-37.038-.594-49.509-1.548q-9.614-1.595-18.876-3.758c.623-.788,3.737-1.528,8.774-2.177a303.769,303.769,0,0,0,57.978,6.2c1.254.015,2.5.022,3.75.022a301.285,301.285,0,0,0,59.815-5.9c4.211.651,6.568,1.378,6.568,2.145,0,.254-.26.506-.763.75q-4.6,1-9.288,1.865c-12.041,1.438-33.714,2.4-58.448,2.4" transform="translate(-815.47 443.918)" opacity="0.043"/>
      <path id="path170" d="M995.066-452.061c-1.249,0-2.5-.007-3.75-.022a303.775,303.775,0,0,1-57.978-6.2c3.9-.5,8.951-.951,14.893-1.326a298.525,298.525,0,0,0,43.132,3.617q1.824.022,3.641.022,4.3,0,8.551-.12a103.074,103.074,0,0,0,16.516-.919q10.337-.864,20.325-2.418c5.968.419,10.9.917,14.483,1.47a301.285,301.285,0,0,1-59.814,5.9" transform="translate(-924.449 460.391)" opacity="0.043"/>
      <path id="path172" d="M1179.981-465.647q-1.816,0-3.641-.022a298.517,298.517,0,0,1-43.132-3.617c5-.315,10.632-.579,16.735-.779,5.58,4.022,15.231,4.295,26.577,4.295,1.783,0,3.609-.007,5.467-.007,2.12,0,4.2.01,6.218.01h.327q-4.253.119-8.551.12m25.067-1.039a22.041,22.041,0,0,0,8.638-3.079c4.219.19,8.138.411,11.688.661q-9.979,1.548-20.325,2.418" transform="translate(-1109.425 470.065)" opacity="0.043"/>
      <path id="path166" d="M833.024-408.842c-11.764-.9-18.991-2.12-18.991-3.463a.472.472,0,0,1,.116-.294q9.251,2.158,18.876,3.757m107.957-.848q4.688-.863,9.288-1.865c-1.385.675-4.61,1.306-9.288,1.865" transform="translate(-814.033 416.881)" opacity="0.04"/>
    </g>
    <g id="g174" transform="translate(849.416 -1904.203)">
      <g id="g176" transform="translate(0 0)" clip-path="url(#clip-path-4)">
        <path id="path192" d="M1332.286-1167.81c-2.022,0-4.1-.01-6.218-.01-1.858,0-3.684.007-5.467.007-11.346,0-21-.273-26.577-4.3a12.281,12.281,0,0,1-1.39-1.164,11.465,11.465,0,0,1-2.76-4.279,15.838,15.838,0,0,1-.892-4.085q-.092-.99-.093-2.078c0-.62.022-1.257.067-1.906a35.076,35.076,0,0,1,.5-3.917c.231-1.26.53-2.553.893-3.865.349-1.259.757-2.535,1.222-3.82.1-.268.2-.539.3-.809l4.925-.365a2.874,2.874,0,0,0,1.9-.917l1.632-1.769-.85,7.756,2.543-.088,5.463,25.109h1.7l-.514-23.52h.715a68.7,68.7,0,0,0,1.4-7.2,40.87,40.87,0,0,0-.757-8.158,3.193,3.193,0,0,0-2.284-2.55,9.7,9.7,0,0,0-2.537-.322c-.235,0-.448.008-.627.021-.158.011-.339.015-.534.015-.137,0-.28,0-.428,0s-.3,0-.454,0a7.87,7.87,0,0,0-1.393.095,2.824,2.824,0,0,0-2.079,1.668l-2.918,6.836-3.945,1.029c.087-.2.174-.4.262-.6q.833-1.881,1.813-3.743c6.625-12.575,18.085-23.887,31.161-23.887,12.8.086,24.058,10.964,30.739,23.2q1.012,1.852,1.88,3.735c.581,1.259,1.113,2.523,1.59,3.781.488,1.284.92,2.564,1.293,3.827q.583,1.972.97,3.877a36.588,36.588,0,0,1,.585,3.935q.119,1.319.12,2.561,0,.747-.043,1.447a17.206,17.206,0,0,1-.721,4.114,11.774,11.774,0,0,1-2.384,4.313,11.99,11.99,0,0,1-2.33,2.033,22.039,22.039,0,0,1-8.638,3.079,103.086,103.086,0,0,1-16.516.919h-.327" transform="translate(-1288.889 1228.632)" fill="url(#linear-gradient)"/>
      </g>
    </g>
    <g id="g194" transform="translate(868.489 -1929.223)">
      <g id="g196" clip-path="url(#clip-path-5)">
        <path id="path212" d="M1544.849-1556.659c0-8.155,8.155-7.74,18.106-7.74s18.1-.414,18.1,7.74-8.154,21.462-18.1,21.462-18.106-13.309-18.106-21.462" transform="translate(-1544.849 1564.403)" fill="url(#linear-gradient)"/>
      </g>
    </g>
    <g id="g214" transform="translate(870.7 -1905.723)">
      <g id="g216" clip-path="url(#clip-path-6)">
        <path id="path230" d="M1606.317-1245.854a2.477,2.477,0,0,1-2.488,2.488h-26.812a2.478,2.478,0,0,1-2.488-2.488v-.691a2.477,2.477,0,0,1,2.488-2.488h26.95a2.477,2.477,0,0,1,2.488,2.488v.691h-.138" transform="translate(-1574.529 1249.033)" fill="#febb5e"/>
      </g>
    </g>
    <path id="path248" d="M1581.835-1000.491a16.585,16.585,0,0,1,16.585,16.585,16.584,16.584,0,0,1-16.585,16.585,16.585,16.585,0,0,1-16.586-16.585,16.585,16.585,0,0,1,16.586-16.585" transform="translate(-695.241 -886.712)" fill="#feb75b"/>
    <path id="path268" d="M1700.617-924.151v-3.455a11.762,11.762,0,0,1-5.528-1.382l.83-3.732a11.745,11.745,0,0,0,5.252,1.382c1.8,0,3.04-.691,3.04-1.934s-.968-1.935-3.455-2.764c-3.455-1.106-5.667-2.765-5.667-5.805,0-2.764,1.244-4.975,5.39-5.667v-2.9h2.764v2.764c2.765.138,3.733.553,4.7,1.106l-.828,3.593a9.337,9.337,0,0,0-4.561-1.106c-2.073,0-2.764.829-2.764,1.8,0,1.105,1.106,1.659,3.87,2.764,3.732,1.382,5.252,3.04,5.252,5.942s-1.52,5.253-5.666,5.943v3.455h-2.627" transform="translate(-815.405 -933.061)" fill="#fff"/>
    <g id="g270" transform="translate(894.462 -1853.325)">
      <g id="g272" transform="translate(0 0)" clip-path="url(#clip-path-7)">
        <path id="path286" d="M1937.416-534.983h-43.994v-10.856h43.994v10.856" transform="translate(-1893.422 545.839)" fill="url(#linear-gradient-3)"/>
      </g>
    </g>
    <path id="path288" d="M1937.416-529.579h-43.994v-.286h43.994v.286" transform="translate(-998.96 -1322.27)" fill="#00a127"/>
    <path id="path290" d="M1937.416-507.207h-43.994v-.285h43.994v.285" transform="translate(-998.96 -1342.976)" fill="#00a127"/>
    <path id="path292" d="M1937.416-484.846h-43.994v-.286h43.994v.286" transform="translate(-998.96 -1363.67)" fill="#00a127"/>
    <path id="path294" d="M1937.416-462.486h-43.994v-.286h43.994v.286" transform="translate(-998.96 -1384.364)" fill="#00a127"/>
    <path id="path296" d="M1937.416-440.114h-43.994v-.285h43.994v.285" transform="translate(-998.96 -1405.07)" fill="#00a127"/>
    <path id="path298" d="M1937.416-417.753h-43.994v-.286h43.994v.286" transform="translate(-998.96 -1425.764)" fill="#00a127"/>
    <g id="g300" transform="translate(907.888 -1853.325)">
      <g id="g302" transform="translate(0 0)" clip-path="url(#clip-path-8)">
        <path id="path316" d="M2084.465-534.983h-10.856v-10.856h10.856v10.856" transform="translate(-2073.608 545.839)" fill="url(#linear-gradient-4)"/>
      </g>
    </g>
    <path id="path318" d="M2095.913-534.983h-.571v-10.856h.571v10.856" transform="translate(-1185.834 -1307.487)" fill="#fff"/>
    <path id="path320" d="M2189.206-534.983h-.571v-10.856h.571v10.856" transform="translate(-1272.175 -1307.487)" fill="#fff"/>
    <g id="g322" transform="translate(888.02 -1864.204)">
      <g id="g324" transform="translate(0 0)" clip-path="url(#clip-path-9)">
        <path id="path338" d="M1850.963-680.983h-43.994v-10.855h43.994v10.855" transform="translate(-1806.969 691.838)" fill="url(#linear-gradient-5)"/>
      </g>
    </g>
    <path id="path340" d="M1850.963-675.58h-43.994v-.285h43.994v.285" transform="translate(-918.949 -1187.149)" fill="#00a127"/>
    <path id="path342" d="M1850.963-653.219h-43.994v-.286h43.994v.286" transform="translate(-918.949 -1207.843)" fill="#00a127"/>
    <path id="path344" d="M1850.963-630.859h-43.994v-.286h43.994v.286" transform="translate(-918.949 -1228.537)" fill="#00a127"/>
    <path id="path346" d="M1850.963-608.487h-43.994v-.285h43.994v.285" transform="translate(-918.949 -1249.243)" fill="#00a127"/>
    <path id="path348" d="M1850.963-586.126h-43.994v-.286h43.994v.286" transform="translate(-918.949 -1269.937)" fill="#00a127"/>
    <path id="path350" d="M1850.963-563.766h-43.994v-.286h43.994v.286" transform="translate(-918.949 -1290.631)" fill="#00a127"/>
    <g id="g352" transform="translate(901.447 -1864.204)">
      <g id="g354" transform="translate(0 0)" clip-path="url(#clip-path-10)">
        <path id="path368" d="M1998.024-680.983h-10.855v-10.855h10.855v10.855" transform="translate(-1987.169 691.838)" fill="url(#linear-gradient-4)"/>
      </g>
    </g>
    <path id="path370" d="M2009.46-680.983h-.571v-10.855h.571v10.855" transform="translate(-1105.823 -1172.366)" fill="#fff"/>
    <path id="path372" d="M2102.753-680.983h-.571v-10.855h.571v10.855" transform="translate(-1192.164 -1172.366)" fill="#fff"/>
    <path id="path390" d="M1995.056-827h-43.994v-10.856h43.994V-827" transform="translate(-1052.305 -1037.233)" fill="url(#linear-gradient-16)"/>
    <path id="path392" d="M1995.056-821.592h-43.994v-.286h43.994v.286" transform="translate(-1052.305 -1052.016)" fill="#00a127"/>
    <path id="path394" d="M1995.056-799.232h-43.994v-.286h43.994v.286" transform="translate(-1052.305 -1072.71)" fill="#00a127"/>
    <path id="path396" d="M1995.056-776.86h-43.994v-.285h43.994v.285" transform="translate(-1052.305 -1093.416)" fill="#00a127"/>
    <path id="path398" d="M1995.056-754.5h-43.994v-.286h43.994v.286" transform="translate(-1052.305 -1114.11)" fill="#00a127"/>
    <path id="path400" d="M1995.056-732.139h-43.994v-.286h43.994v.286" transform="translate(-1052.305 -1134.804)" fill="#00a127"/>
    <path id="path402" d="M1995.056-709.767h-43.994v-.285h43.994v.285" transform="translate(-1052.305 -1155.51)" fill="#00a127"/>
    <path id="path420" d="M2142.1-827h-10.856v-10.856H2142.1V-827" transform="translate(-1219.065 -1037.233)" fill="url(#linear-gradient-4)"/>
    <path id="path422" d="M2153.553-827h-.571v-10.856h.571V-827" transform="translate(-1239.179 -1037.233)" fill="#fff"/>
    <path id="path424" d="M2246.833-827h-.571v-10.856h.571V-827" transform="translate(-1325.508 -1037.233)" fill="#fff"/>
    <g id="g426" transform="translate(863.964 -1887.895)">
      <g id="g428" transform="translate(0)" clip-path="url(#clip-path-11)">
        <path id="path442" d="M1484.13-1006.12l.034-2.3,2.182-1.35v3.948l-2.216-.3" transform="translate(-1484.13 1009.768)" fill="url(#linear-gradient-18)"/>
      </g>
    </g>
    <g id="g444" transform="translate(862.288 -1891.386)">
      <g id="g446" transform="translate(0 0)" clip-path="url(#clip-path-12)">
        <path id="path460" d="M1465.685-1053.34s-.248,1.865-1.74,1.865-2.237.124-2.237-1.367-.372-2.984.622-3.481,3.48-.622,3.356,1.492c0,0,.622-.5.622.248s0,1.492-.622,1.243" transform="translate(-1461.639 1056.629)" fill="url(#linear-gradient-19)"/>
      </g>
    </g>
    <g id="g462" transform="translate(861.026 -1893.816)">
      <g id="g464" transform="translate(0 0)" clip-path="url(#clip-path-13)">
        <path id="path478" d="M1450.011-1083.146s3.854-2.859,1.244-4.848-3.357.373-5.719-1.243c0,0-2.239,1.865.621,3.108,0,0,3.543-.435,3.294,1.554a1.045,1.045,0,0,1,.995-.373c.622.124-.249,1.368-.435,1.8" transform="translate(-1444.703 1089.237)" fill="url(#linear-gradient-20)"/>
      </g>
    </g>
    <g id="g480" transform="translate(860.156 -1869.096)">
      <g id="g482" transform="translate(0 0)" clip-path="url(#clip-path-14)">
        <path id="path498" d="M1433.023-732.221h1.5l3.6-16.513-2.753-8.757-1.7.1-.651,25.17" transform="translate(-1433.023 757.491)" fill="url(#linear-gradient-21)"/>
      </g>
    </g>
    <g id="g500" transform="translate(857.123 -1843.882)">
      <g id="g502" transform="translate(0 0)" clip-path="url(#clip-path-15)">
        <path id="path516" d="M1396.841-419.106l.291.933a.519.519,0,0,1-.495.674h-4.315s-.1-.8.9-1a10.366,10.366,0,0,0,1.908-.6h1.707" transform="translate(-1392.319 419.106)" fill="url(#linear-gradient-22)"/>
      </g>
    </g>
    <g id="g518" transform="translate(865.229 -1843.882)">
      <g id="g520" transform="translate(0 0)" clip-path="url(#clip-path-16)">
        <path id="path534" d="M1505.627-419.106l.292.933a.519.519,0,0,1-.5.674h-4.315s-.1-.8.9-1a10.38,10.38,0,0,0,1.907-.6h1.707" transform="translate(-1501.106 419.106)" fill="url(#linear-gradient-23)"/>
      </g>
    </g>
    <g id="g536" transform="translate(862.549 -1869.169)">
      <g id="g538" transform="translate(0 0)" clip-path="url(#clip-path-17)">
        <path id="path554" d="M1472.307-733.172h-1.7l-5.463-25.109,5.266-.184,0,.072h.784l-.283,1.7h.886l.515,23.519" transform="translate(-1465.143 758.465)" fill="url(#linear-gradient-24)"/>
      </g>
    </g>
    <path id="path572" d="M1320.967-961.148h-1.6l.283-1.7h.017a45.251,45.251,0,0,0,.3-5.3,30.384,30.384,0,0,0-.7-4.2l-.4,9.435-5.266.184-2.543.088.85-7.756-1.632,1.769a2.874,2.874,0,0,1-1.9.917l-4.925.365-2.05.152.05-1.751,2.96-.772,3.945-1.029,2.918-6.836a2.824,2.824,0,0,1,2.079-1.668,7.858,7.858,0,0,1,1.393-.095c.154,0,.306,0,.454,0s.291,0,.428,0c.195,0,.375,0,.533-.015.179-.013.391-.021.627-.021a9.7,9.7,0,0,1,2.537.322,3.193,3.193,0,0,1,2.284,2.55,40.87,40.87,0,0,1,.757,8.158,68.661,68.661,0,0,1-1.4,7.2m-9.108-13.31-.792,4.964.792-.961v-4" transform="translate(-451.053 -906.248)" fill="url(#linear-gradient-25)"/>
    <g id="g574" transform="translate(846.027 -1875.741)">
      <g id="g576" transform="translate(0 0)" clip-path="url(#clip-path-18)">
        <path id="path590" d="M1247.734-844.661a4.832,4.832,0,0,1-2.11.487c-.9-.1-2.4-.9-2.2-1.4s2,.1,2.1-.3-.7-.3-.7-.6.7-.2,1.1,0a10.157,10.157,0,0,0,1.8.4l.008,1.415" transform="translate(-1243.404 846.666)" fill="url(#linear-gradient-26)"/>
      </g>
    </g>
    <g id="g592" transform="translate(868.013 -1867.396)">
      <g id="g594" transform="translate(0 0)" clip-path="url(#clip-path-19)">
        <path id="path608" d="M1538.763-734.665a8.6,8.6,0,0,0-.3,1.3c0,.3.1.6.3.3s.1.7,0,1.2.8.8,1.5,0,0-2.8,0-2.8h-1.5" transform="translate(-1538.463 734.665)" fill="url(#linear-gradient-27)"/>
      </g>
    </g>
    <g id="g610" transform="translate(860.015 -1880.706)">
      <g id="g612" transform="translate(0 0)" clip-path="url(#clip-path-20)">
        <path id="path626" d="M1431.13-908.328l.792-4.965v4l-.792.961" transform="translate(-1431.13 913.293)" fill="url(#linear-gradient-28)"/>
      </g>
    </g>
    <g id="g628" transform="translate(867.812 -1869.197)">
      <g id="g630" transform="translate(0 0)" clip-path="url(#clip-path-21)">
        <path id="path646" d="M1536.553-758.738h-.784l0-.073.8-.028-.017.1" transform="translate(-1535.77 758.838)" fill="url(#linear-gradient-29)"/>
      </g>
    </g>
    <path id="path664" d="M1536.608-875.578h-.017l.017-.1-.8.028.4-9.435a30.405,30.405,0,0,1,.7,4.2,45.213,45.213,0,0,1-.3,5.3" transform="translate(-667.995 -993.518)" fill="url(#linear-gradient-30)"/>
    <g id="g666" transform="translate(832.666 -1890.647)">
      <g id="g668" transform="translate(0 0)" clip-path="url(#clip-path-22)">
        <path id="path682" d="M1068.879-1044.733a2.22,2.22,0,0,0-1.886-1.953c-1.341-.157-2.645.425-2.844,1.412a9.523,9.523,0,0,0,.316,3.053,15.918,15.918,0,0,1-.038,2.447l2.812.526a6.207,6.207,0,0,1,.306-1.921,4.764,4.764,0,0,1,1.139-.7.988.988,0,0,0,.46-.959,7.776,7.776,0,0,0-.06-1.422c-.046-.181-.161-.323-.2-.483" transform="translate(-1064.095 1046.711)" fill="url(#linear-gradient-31)"/>
      </g>
    </g>
    <g id="g684" transform="translate(830.464 -1878.132)">
      <g id="g686" transform="translate(0 0)" clip-path="url(#clip-path-23)">
        <path id="path700" d="M1034.728-878.749l-.182,3.25a2.152,2.152,0,0,0,.15.918l1.259,3.147.82-.821-.82-3.128.176-3.119-1.4-.248" transform="translate(-1034.543 878.749)" fill="url(#linear-gradient-32)"/>
      </g>
    </g>
    <g id="g702" transform="translate(831.404 -1872.765)">
      <g id="g704" transform="translate(0 0)" clip-path="url(#clip-path-24)">
        <path id="path718" d="M1051.366-803.7l-3.756-3.018a7.042,7.042,0,0,0-.182,4.351c.344,1.095-.022,1.873.164,2.391.173.485,1.446,7.376,1.376,7.884a35.18,35.18,0,0,0-.823,3.431c-.211,1.641-.074,6.653-.182,8.686h0a9.328,9.328,0,0,1-.26,1.85,3.064,3.064,0,0,0-.446,1.157.708.708,0,0,0,.433.677c.3.145.5-.019.6-.008.625.061.747.532,1.822.683a1.639,1.639,0,0,0,1.119-.312.246.246,0,0,0,.038-.333c-.066-.1-.861-.35-1.223-.568a2.851,2.851,0,0,1-.788-1.007,1.093,1.093,0,0,1-.007-.392h0q.06-.48.135-.995c.043-.257.078-.448.078-.448l-.011,0c.675-4.423,1.988-10.28,2.162-12.293.195-2.24,0-6.332-.249-11.731" transform="translate(-1047.159 806.718)" fill="url(#linear-gradient-33)"/>
      </g>
    </g>
    <g id="g720" transform="translate(831.342 -1843.907)">
      <g id="g722" transform="translate(0 0)" clip-path="url(#clip-path-25)">
        <path id="path736" d="M1050.553-417.433c.075-.135.09-.338.016-.385a6.331,6.331,0,0,0-.676-.384c-.21-.09-.541-.167-.424-.107s-.091.3-.285.292a5.915,5.915,0,0,1-1.562-.545,1.314,1.314,0,0,1-.828-.875,2.558,2.558,0,0,0-.378.765,1.318,1.318,0,0,0-.068.578,1.341,1.341,0,0,1,.074.548,1.061,1.061,0,0,0,.4.133,1.544,1.544,0,0,0,.427,0l.039-.348a1.593,1.593,0,0,1,.342.026,1.874,1.874,0,0,1,.527.231c.079.089.144.255.247.3a2.135,2.135,0,0,0,.885.2c.72.025,1.135-.194,1.263-.425" transform="translate(-1046.334 419.439)" fill="url(#linear-gradient-34)"/>
      </g>
    </g>
    <g id="g738" transform="translate(832.052 -1873.401)">
      <g id="g740" transform="translate(0 0)" clip-path="url(#clip-path-26)">
        <path id="path754" d="M1064.824-784.109c-.08-.086-.934-.217-1.336-.38a2.309,2.309,0,0,1-.942-.879,9.593,9.593,0,0,1-.076-1.78c.047-3.185.557-10.971.624-12.836.115-3.24-.339-6.579-1.638-11.766l-4.676-3.514a8.252,8.252,0,0,0-.817,4.735c.266,1.337,1.38,1.532,1.573,2.051s3.085,8.888,3.085,8.888a15.813,15.813,0,0,0-.54,3.811c-.01,1.7.812,6.812.975,8.761a6.419,6.419,0,0,1-.014,1.585c-.134.358-.481.78-.459,1.229a.69.69,0,0,0,.534.605c.33.1.511-.093.624-.1.654-.034.84.415,1.969.4a1.789,1.789,0,0,0,1.116-.478.238.238,0,0,0,0-.335" transform="translate(-1055.864 815.265)" fill="url(#linear-gradient-35)"/>
      </g>
    </g>
    <g id="g756" transform="translate(836.648 -1843.273)">
      <g id="g758" transform="translate(0 0)" clip-path="url(#clip-path-27)">
        <path id="path772" d="M1122.01-409.508c.06-.145.05-.349-.032-.384a6.607,6.607,0,0,0-.747-.28c-.228-.058-.58-.083-.451-.042s-.056.31-.257.332a6.257,6.257,0,0,1-1.683-.306,1.072,1.072,0,0,1-.852-.744,2.708,2.708,0,0,0-.408.816,1.274,1.274,0,0,0,0,.584,1.273,1.273,0,0,1,.146.533,1.13,1.13,0,0,0,.43.072,1.7,1.7,0,0,0,.441-.068l0-.351a1.7,1.7,0,0,1,.356-.026,1.17,1.17,0,0,1,.577.2c.1.071.2.192.312.219a2.356,2.356,0,0,0,.917.06c.747-.083,1.148-.363,1.251-.611" transform="translate(-1117.545 410.932)" fill="url(#linear-gradient-36)"/>
      </g>
    </g>
    <g id="g774" transform="translate(835.088 -1881.158)">
      <g id="g776" transform="translate(0 0)" clip-path="url(#clip-path-28)">
        <path id="path790" d="M1110.352-913.307a1.3,1.3,0,0,1-1.259-.058c.035-.1.124-.047.3-.151.19-.115.242-.276.207-.361-.026-.065-.272.038-.334.043l-.708.066a1.138,1.138,0,0,0-.658.241,1.219,1.219,0,0,0-.117.11c-1.506.045-5.105-1.629-5.715-1.688-.4-.039-4.216-4.259-4.216-4.259l-1.242,2.741a45.55,45.55,0,0,0,4.149,3.45c1.411.857,6.366,1.046,6.809,1.062a1.524,1.524,0,0,0,1.242.346c.645-.131,1.619.169,2.135-1.207.059-.157-.271-.484-.59-.334" transform="translate(-1096.607 919.365)" fill="url(#linear-gradient-37)"/>
      </g>
    </g>
    <g id="g792" transform="translate(830.434 -1881.739)">
      <g id="g794" transform="translate(0 0)" clip-path="url(#clip-path-29)">
        <path id="path810" d="M1035.121-927.156a22.228,22.228,0,0,0-.982,3.573l1.791.282v-2.536" transform="translate(-1034.139 927.156)" fill="url(#linear-gradient-38)"/>
      </g>
    </g>
    <path id="path830" d="M1049.03-818.038a24.653,24.653,0,0,1,1.746,6.9,29.458,29.458,0,0,1-.019,5.205c-1.592.938-5.11,1.047-6.843-.209a27.519,27.519,0,0,0-.543-4.289c-.081-.522-.608-1.956-.677-2.478a5.439,5.439,0,0,1,1.526-4.935l4.809-.191" transform="translate(-211.561 -1055.57)" fill="url(#linear-gradient-39)"/>
    <path id="path816" d="M1049.03-818.038a24.654,24.654,0,0,1,1.746,6.9,29.459,29.459,0,0,1-.019,5.205c-1.592.938-5.11,1.047-6.843-.209a27.52,27.52,0,0,0-.543-4.289c-.081-.522-.608-1.956-.677-2.478a5.439,5.439,0,0,1,1.526-4.935Z" transform="translate(-211.561 -1055.57)" fill="url(#linear-gradient-40)"/>
    <g id="g832" transform="translate(831.257 -1883.778)">
      <g id="g834" transform="translate(0)" clip-path="url(#clip-path-30)">
        <path id="path850" d="M1051.322-946.767a19.22,19.22,0,0,0,1.845-2.38,9.189,9.189,0,0,1-1.162-2.415,3.251,3.251,0,0,0-.935-1.4,4.191,4.191,0,0,0-1.373-1.548c-.113-.019-.762-.01-1.527.007a3.062,3.062,0,0,0-2.981,3.264,21.713,21.713,0,0,0,.337,2.492,26.546,26.546,0,0,1,.17,4.213c-.019.448-.228.576-.228.8,0,.329.553.511,1.09.4.572-.112,2.6.043,3.885-.19a1.887,1.887,0,0,0,.939-.363.392.392,0,0,0,.135-.267,5.187,5.187,0,0,0-.085-.683c-.058-.719-.107-1.385-.11-1.932" transform="translate(-1045.183 954.525)" fill="url(#linear-gradient-41)"/>
      </g>
    </g>
    <g id="g852" transform="translate(827.381 -1891.394)">
      <g id="g854" transform="translate(0 0)" clip-path="url(#clip-path-31)">
        <path id="path868" d="M1002.878-1054.508c.484-.19.419-1.458-.183-1.838a3.569,3.569,0,0,0-5.208,3.389,7.348,7.348,0,0,1-3.983,6.095c-.686.423-.31.659.974,1.152.912.35.761.976,1.255,1.194a1.7,1.7,0,0,0,1.7-.206c.792-.423.747.409,1.265.557,1.054.3,1.371-.845,1.19-1.542s-.969-6.13.542-6.954c.687-.375,1.029.562,1.029.562s.458-2.029,1.424-2.409" transform="translate(-993.167 1056.726)" fill="url(#linear-gradient-42)"/>
      </g>
    </g>
    <g id="g870" transform="translate(823.714 -1907.877)">
      <g id="g872" transform="translate(0 0)" clip-path="url(#clip-path-32)">
        <path id="path886" d="M951.337-1274.257a3.686,3.686,0,0,1-3.686,3.686,3.686,3.686,0,0,1-3.686-3.686,3.686,3.686,0,0,1,3.686-3.686,3.686,3.686,0,0,1,3.686,3.686" transform="translate(-943.966 1277.942)" fill="url(#linear-gradient-43)"/>
      </g>
    </g>
    <g id="g888" transform="translate(824.332 -1907.26)">
      <g id="g890" transform="translate(0 0)" clip-path="url(#clip-path-33)">
        <path id="path904" d="M958.389-1266.589a3.068,3.068,0,0,1-3.068,3.068,3.068,3.068,0,0,1-3.068-3.068,3.068,3.068,0,0,1,3.068-3.068,3.068,3.068,0,0,1,3.068,3.068" transform="translate(-952.252 1269.657)" fill="url(#linear-gradient-44)"/>
      </g>
    </g>
    <g id="g922" transform="translate(832.224 -1958.595)">
      <g id="g924" transform="translate(0)" clip-path="url(#clip-path-34)">
        <path id="path938" d="M1063.871-1955.745a2.851,2.851,0,0,1-2.851,2.85,2.851,2.851,0,0,1-2.851-2.85,2.85,2.85,0,0,1,2.851-2.85,2.85,2.85,0,0,1,2.851,2.85" transform="translate(-1058.169 1958.595)" fill="url(#linear-gradient-45)"/>
      </g>
    </g>
    <g id="g940" transform="translate(832.702 -1958.118)">
      <g id="g942" transform="translate(0 0)" clip-path="url(#clip-path-35)">
        <path id="path956" d="M1069.325-1949.822a2.373,2.373,0,0,1-2.373,2.372,2.373,2.373,0,0,1-2.373-2.372,2.374,2.374,0,0,1,2.373-2.374,2.374,2.374,0,0,1,2.373,2.374" transform="translate(-1064.579 1952.195)" fill="url(#linear-gradient-46)"/>
      </g>
    </g>
    <g id="g974" transform="translate(907.74 -1905.713)">
      <g id="g976" transform="translate(0 0)" clip-path="url(#clip-path-36)">
        <path id="path990" d="M2077.323-1246.052a2.85,2.85,0,0,1-2.851,2.85,2.85,2.85,0,0,1-2.85-2.85,2.85,2.85,0,0,1,2.85-2.851,2.85,2.85,0,0,1,2.851,2.851" transform="translate(-2071.622 1248.902)" fill="url(#linear-gradient-47)"/>
      </g>
    </g>
    <g id="g992" transform="translate(908.217 -1905.236)">
      <g id="g994" transform="translate(0 0)" clip-path="url(#clip-path-37)">
        <path id="path1008" d="M2082.769-1240.121a2.374,2.374,0,0,1-2.374,2.373,2.374,2.374,0,0,1-2.374-2.373,2.373,2.373,0,0,1,2.374-2.373,2.373,2.373,0,0,1,2.374,2.373" transform="translate(-2078.021 1242.494)" fill="url(#linear-gradient-48)"/>
      </g>
    </g>
    <g id="g1026" transform="translate(890.395 -1939.286)">
      <g id="g1028" transform="translate(0)" clip-path="url(#clip-path-38)">
        <path id="path1042" d="M1841.868-1697.946a1.516,1.516,0,0,1-1.516,1.516,1.516,1.516,0,0,1-1.516-1.516,1.516,1.516,0,0,1,1.516-1.516,1.516,1.516,0,0,1,1.516,1.516" transform="translate(-1838.835 1699.462)" fill="url(#linear-gradient-49)"/>
      </g>
    </g>
    <g id="g1044" transform="translate(890.649 -1939.032)">
      <g id="g1046" transform="translate(0 0)" clip-path="url(#clip-path-39)">
        <path id="path1060" d="M1844.773-1694.787a1.261,1.261,0,0,1-1.262,1.262,1.262,1.262,0,0,1-1.262-1.262,1.262,1.262,0,0,1,1.262-1.262,1.262,1.262,0,0,1,1.262,1.262" transform="translate(-1842.249 1696.049)" fill="url(#linear-gradient-50)"/>
      </g>
    </g>
    <g id="g1078" transform="translate(846.679 -1883.16)">
      <g id="g1080" transform="translate(0 0)" clip-path="url(#clip-path-40)">
        <path id="path1094" d="M1255.186-944.718a1.516,1.516,0,0,1-1.516,1.516,1.516,1.516,0,0,1-1.516-1.516,1.516,1.516,0,0,1,1.516-1.516,1.516,1.516,0,0,1,1.516,1.516" transform="translate(-1252.154 946.234)" fill="url(#linear-gradient-51)"/>
      </g>
    </g>
    <g id="g1096" transform="translate(846.933 -1882.906)">
      <g id="g1098" transform="translate(0 0)" clip-path="url(#clip-path-41)">
        <path id="path1112" d="M1258.086-941.562a1.262,1.262,0,0,1-1.262,1.262,1.262,1.262,0,0,1-1.262-1.262,1.262,1.262,0,0,1,1.262-1.262,1.262,1.262,0,0,1,1.262,1.262" transform="translate(-1255.562 942.824)" fill="url(#linear-gradient-52)"/>
      </g>
    </g>
    <g id="g1130" transform="translate(836.173 -1923.422)">
      <g id="g1132" transform="translate(0 0)" clip-path="url(#clip-path-42)">
        <path id="path1146" d="M1114.192-1485.04a1.516,1.516,0,0,1-1.516,1.516,1.516,1.516,0,0,1-1.516-1.516,1.517,1.517,0,0,1,1.516-1.516,1.517,1.517,0,0,1,1.516,1.516" transform="translate(-1111.16 1486.556)" fill="url(#linear-gradient-53)"/>
      </g>
    </g>
    <g id="g1148" transform="translate(836.427 -1923.167)">
      <g id="g1150" transform="translate(0)" clip-path="url(#clip-path-43)">
        <path id="path1164" d="M1117.092-1481.881a1.262,1.262,0,0,1-1.262,1.263,1.262,1.262,0,0,1-1.262-1.263,1.262,1.262,0,0,1,1.262-1.262,1.262,1.262,0,0,1,1.262,1.262" transform="translate(-1114.568 1483.143)" fill="url(#linear-gradient-54)"/>
      </g>
    </g>
    <g id="g1182" transform="translate(930.515 -1916.159)">
      <g id="g1184" transform="translate(0)" clip-path="url(#clip-path-44)">
        <path id="path1198" d="M2380.293-1387.574a1.516,1.516,0,0,1-1.516,1.516,1.516,1.516,0,0,1-1.516-1.516,1.516,1.516,0,0,1,1.516-1.516,1.516,1.516,0,0,1,1.516,1.516" transform="translate(-2377.261 1389.09)" fill="url(#linear-gradient-55)"/>
      </g>
    </g>
    <g id="g1200" transform="translate(930.769 -1915.905)">
      <g id="g1202" transform="translate(0 0)" clip-path="url(#clip-path-45)">
        <path id="path1216" d="M2383.2-1384.415a1.261,1.261,0,0,1-1.262,1.262,1.261,1.261,0,0,1-1.262-1.262,1.262,1.262,0,0,1,1.262-1.262,1.262,1.262,0,0,1,1.262,1.262" transform="translate(-2380.674 1385.677)" fill="url(#linear-gradient-56)"/>
      </g>
    </g>
    <g id="g1234" transform="translate(941.233 -1892.186)">
      <g id="g1236" transform="translate(0)" clip-path="url(#clip-path-46)">
        <path id="path1250" d="M2524.132-1065.839a1.516,1.516,0,0,1-1.516,1.516,1.516,1.516,0,0,1-1.515-1.516,1.516,1.516,0,0,1,1.515-1.516,1.516,1.516,0,0,1,1.516,1.516" transform="translate(-2521.101 1067.355)" fill="url(#linear-gradient-57)"/>
      </g>
    </g>
    <g id="g1252" transform="translate(941.486 -1891.932)">
      <g id="g1254" transform="translate(0 0)" clip-path="url(#clip-path-47)">
        <path id="path1268" d="M2527.025-1062.685a1.262,1.262,0,0,1-1.263,1.262,1.262,1.262,0,0,1-1.262-1.262,1.262,1.262,0,0,1,1.262-1.262,1.262,1.262,0,0,1,1.263,1.262" transform="translate(-2524.501 1063.947)" fill="url(#linear-gradient-58)"/>
      </g>
    </g>
    <g id="g1286" transform="translate(914.932 -1884.712)">
      <g id="g1288" transform="translate(0 0)" clip-path="url(#clip-path-48)">
        <path id="path1302" d="M2171.173-965.535a1.516,1.516,0,0,1-1.515,1.516,1.516,1.516,0,0,1-1.516-1.516,1.516,1.516,0,0,1,1.516-1.516,1.516,1.516,0,0,1,1.515,1.516" transform="translate(-2168.141 967.051)" fill="url(#linear-gradient-59)"/>
      </g>
    </g>
    <g id="g1304" transform="translate(915.186 -1884.458)">
      <g id="g1306" transform="translate(0 0)" clip-path="url(#clip-path-49)">
        <path id="path1320" d="M2174.066-962.38a1.262,1.262,0,0,1-1.262,1.262,1.262,1.262,0,0,1-1.263-1.262,1.262,1.262,0,0,1,1.263-1.262,1.262,1.262,0,0,1,1.262,1.262" transform="translate(-2171.542 963.642)" fill="url(#linear-gradient-60)"/>
      </g>
    </g>
    <g id="g1338" transform="translate(857.184 -1949.228)">
      <g id="g1340" transform="translate(0)" clip-path="url(#clip-path-50)">
        <path id="path1354" d="M1396.176-1831.373a1.516,1.516,0,0,1-1.516,1.516,1.516,1.516,0,0,1-1.516-1.516,1.516,1.516,0,0,1,1.516-1.516,1.517,1.517,0,0,1,1.516,1.516" transform="translate(-1393.143 1832.889)" fill="url(#linear-gradient-61)"/>
      </g>
    </g>
    <g id="g1356" transform="translate(857.439 -1948.974)">
      <g id="g1358" clip-path="url(#clip-path-51)">
        <path id="path1372" d="M1399.08-1828.214a1.262,1.262,0,0,1-1.262,1.263,1.263,1.263,0,0,1-1.262-1.263,1.262,1.262,0,0,1,1.262-1.262,1.262,1.262,0,0,1,1.262,1.262" transform="translate(-1396.557 1829.476)" fill="url(#linear-gradient-62)"/>
      </g>
    </g>
    <g id="g1390" transform="translate(909.573 -1958.183)">
      <g id="g1392" transform="translate(0)" clip-path="url(#clip-path-52)">
        <path id="path1406" d="M2099.254-1951.546a1.516,1.516,0,0,1-1.516,1.516,1.516,1.516,0,0,1-1.516-1.516,1.516,1.516,0,0,1,1.516-1.516,1.516,1.516,0,0,1,1.516,1.516" transform="translate(-2096.222 1953.062)" fill="url(#linear-gradient-63)"/>
      </g>
    </g>
    <g id="g1408" transform="translate(909.828 -1957.929)">
      <g id="g1410" transform="translate(0)" clip-path="url(#clip-path-53)">
        <path id="path1424" d="M2102.158-1948.387a1.262,1.262,0,0,1-1.262,1.262,1.261,1.261,0,0,1-1.262-1.262,1.262,1.262,0,0,1,1.262-1.262,1.262,1.262,0,0,1,1.262,1.262" transform="translate(-2099.635 1949.649)" fill="url(#linear-gradient-64)"/>
      </g>
    </g>
    <g id="g1442" transform="translate(920.102 -1940.805)">
      <g id="g1444" transform="translate(0 0)" clip-path="url(#clip-path-54)">
        <path id="path1458" d="M2244.885-1716.163a3.686,3.686,0,0,1-3.686,3.686,3.686,3.686,0,0,1-3.685-3.686,3.686,3.686,0,0,1,3.685-3.686,3.686,3.686,0,0,1,3.686,3.686" transform="translate(-2237.514 1719.849)" fill="url(#linear-gradient-65)"/>
      </g>
    </g>
    <g id="g1460" transform="translate(920.719 -1940.187)">
      <g id="g1462" transform="translate(0 0)" clip-path="url(#clip-path-55)">
        <path id="path1476" d="M2251.931-1708.488a3.068,3.068,0,0,1-3.069,3.068,3.068,3.068,0,0,1-3.068-3.068,3.068,3.068,0,0,1,3.068-3.068,3.068,3.068,0,0,1,3.069,3.068" transform="translate(-2245.794 1711.556)" fill="url(#linear-gradient-66)"/>
      </g>
    </g>
  </g>
</svg>
