<svg xmlns="http://www.w3.org/2000/svg" width="18" height="16.164" viewBox="0 0 18 16.164">
  <g id="wedding-rings" transform="translate(0 -26.111)">
    <path id="Path_30860" data-name="Path 30860" d="M5.889,40.6a4.615,4.615,0,0,1,.258-9.214,4.451,4.451,0,0,1,3.01,1.175,4.679,4.679,0,0,1,.43,6.421,3.423,3.423,0,0,0,1.633.56,6.388,6.388,0,0,0-.155-7.312,6.2,6.2,0,0,0-2.459-1.989,5.972,5.972,0,0,0-1.679-.473c1.17-.88,1.618-1.617,1.618-2.26a1.383,1.383,0,0,0-1.368-1.4,1.353,1.353,0,0,0-1.029.477,1.353,1.353,0,0,0-1.029-.477,1.383,1.383,0,0,0-1.368,1.4c0,.643.448,1.381,1.618,2.261a6.287,6.287,0,0,0,.779,12.505,6.035,6.035,0,0,0,1.376-.158A7.278,7.278,0,0,1,5.889,40.6Z" fill="#767676"/>
    <path id="Path_30861" data-name="Path 30861" d="M161.4,128.715a6.594,6.594,0,0,0-1.474.165,7.732,7.732,0,0,1,1.749,1.59,4.834,4.834,0,1,1-3.958,1.7,3.716,3.716,0,0,0-1.749-.587,6.581,6.581,0,0,0,.166,7.664,6.606,6.606,0,0,0,2.633,2.085,6.581,6.581,0,1,0,2.632-12.612Z" transform="translate(-149.978 -99.601)" fill="#767676"/>
  </g>
</svg>
